<?xml version="1.0" standalone="no"?><!DOCTYPE svg PUBLIC "-//W3C//DTD SVG 1.1//EN" "http://www.w3.org/Graphics/SVG/1.1/DTD/svg11.dtd"><svg t="1630660715879" class="icon" viewBox="0 0 1104 1024" version="1.1" xmlns="http://www.w3.org/2000/svg" p-id="10049" xmlns:xlink="http://www.w3.org/1999/xlink" width="215.625" height="200"><defs><style type="text/css"></style></defs><path d="M1067.034947 500.547368L577.293474 11.156211a37.914947 37.914947 0 0 0-53.733053 0L33.792 500.547368a76.207158 76.207158 0 0 0-22.339368 53.840843 76.153263 76.153263 0 0 0 76.099368 76.099368h51.604211v349.210947a37.995789 37.995789 0 0 0 38.049684 38.049685h297.121684v-266.34779h133.173895v266.34779h316.146526a37.995789 37.995789 0 0 0 38.049684-38.049685V630.487579h51.604211c20.210526 0 39.585684-7.949474 53.867789-22.339368a76.180211 76.180211 0 0 0-0.134737-107.600843z" p-id="10050" fill="#ffffff"></path></svg>